<?xml version="1.0" encoding="UTF-8"?>
<svg xmlns="http://www.w3.org/2000/svg" xmlns:xlink="http://www.w3.org/1999/xlink" version="1.1" width="29px" height="29px" viewBox="0 0 29 29"><defs><rect id="r0" width="1" height="1" fill="#000000"/></defs><rect x="0" y="0" width="29" height="29" fill="#fefefe"/><use x="4" y="4" xlink:href="#r0"/><use x="5" y="4" xlink:href="#r0"/><use x="6" y="4" xlink:href="#r0"/><use x="7" y="4" xlink:href="#r0"/><use x="8" y="4" xlink:href="#r0"/><use x="9" y="4" xlink:href="#r0"/><use x="10" y="4" xlink:href="#r0"/><use x="12" y="4" xlink:href="#r0"/><use x="13" y="4" xlink:href="#r0"/><use x="16" y="4" xlink:href="#r0"/><use x="18" y="4" xlink:href="#r0"/><use x="19" y="4" xlink:href="#r0"/><use x="20" y="4" xlink:href="#r0"/><use x="21" y="4" xlink:href="#r0"/><use x="22" y="4" xlink:href="#r0"/><use x="23" y="4" xlink:href="#r0"/><use x="24" y="4" xlink:href="#r0"/><use x="4" y="5" xlink:href="#r0"/><use x="10" y="5" xlink:href="#r0"/><use x="13" y="5" xlink:href="#r0"/><use x="16" y="5" xlink:href="#r0"/><use x="18" y="5" xlink:href="#r0"/><use x="24" y="5" xlink:href="#r0"/><use x="4" y="6" xlink:href="#r0"/><use x="6" y="6" xlink:href="#r0"/><use x="7" y="6" xlink:href="#r0"/><use x="8" y="6" xlink:href="#r0"/><use x="10" y="6" xlink:href="#r0"/><use x="12" y="6" xlink:href="#r0"/><use x="14" y="6" xlink:href="#r0"/><use x="16" y="6" xlink:href="#r0"/><use x="18" y="6" xlink:href="#r0"/><use x="20" y="6" xlink:href="#r0"/><use x="21" y="6" xlink:href="#r0"/><use x="22" y="6" xlink:href="#r0"/><use x="24" y="6" xlink:href="#r0"/><use x="4" y="7" xlink:href="#r0"/><use x="6" y="7" xlink:href="#r0"/><use x="7" y="7" xlink:href="#r0"/><use x="8" y="7" xlink:href="#r0"/><use x="10" y="7" xlink:href="#r0"/><use x="12" y="7" xlink:href="#r0"/><use x="15" y="7" xlink:href="#r0"/><use x="18" y="7" xlink:href="#r0"/><use x="20" y="7" xlink:href="#r0"/><use x="21" y="7" xlink:href="#r0"/><use x="22" y="7" xlink:href="#r0"/><use x="24" y="7" xlink:href="#r0"/><use x="4" y="8" xlink:href="#r0"/><use x="6" y="8" xlink:href="#r0"/><use x="7" y="8" xlink:href="#r0"/><use x="8" y="8" xlink:href="#r0"/><use x="10" y="8" xlink:href="#r0"/><use x="12" y="8" xlink:href="#r0"/><use x="13" y="8" xlink:href="#r0"/><use x="14" y="8" xlink:href="#r0"/><use x="18" y="8" xlink:href="#r0"/><use x="20" y="8" xlink:href="#r0"/><use x="21" y="8" xlink:href="#r0"/><use x="22" y="8" xlink:href="#r0"/><use x="24" y="8" xlink:href="#r0"/><use x="4" y="9" xlink:href="#r0"/><use x="10" y="9" xlink:href="#r0"/><use x="18" y="9" xlink:href="#r0"/><use x="24" y="9" xlink:href="#r0"/><use x="4" y="10" xlink:href="#r0"/><use x="5" y="10" xlink:href="#r0"/><use x="6" y="10" xlink:href="#r0"/><use x="7" y="10" xlink:href="#r0"/><use x="8" y="10" xlink:href="#r0"/><use x="9" y="10" xlink:href="#r0"/><use x="10" y="10" xlink:href="#r0"/><use x="12" y="10" xlink:href="#r0"/><use x="14" y="10" xlink:href="#r0"/><use x="16" y="10" xlink:href="#r0"/><use x="18" y="10" xlink:href="#r0"/><use x="19" y="10" xlink:href="#r0"/><use x="20" y="10" xlink:href="#r0"/><use x="21" y="10" xlink:href="#r0"/><use x="22" y="10" xlink:href="#r0"/><use x="23" y="10" xlink:href="#r0"/><use x="24" y="10" xlink:href="#r0"/><use x="13" y="11" xlink:href="#r0"/><use x="14" y="11" xlink:href="#r0"/><use x="4" y="12" xlink:href="#r0"/><use x="5" y="12" xlink:href="#r0"/><use x="6" y="12" xlink:href="#r0"/><use x="7" y="12" xlink:href="#r0"/><use x="10" y="12" xlink:href="#r0"/><use x="12" y="12" xlink:href="#r0"/><use x="14" y="12" xlink:href="#r0"/><use x="17" y="12" xlink:href="#r0"/><use x="20" y="12" xlink:href="#r0"/><use x="21" y="12" xlink:href="#r0"/><use x="22" y="12" xlink:href="#r0"/><use x="24" y="12" xlink:href="#r0"/><use x="4" y="13" xlink:href="#r0"/><use x="7" y="13" xlink:href="#r0"/><use x="8" y="13" xlink:href="#r0"/><use x="9" y="13" xlink:href="#r0"/><use x="11" y="13" xlink:href="#r0"/><use x="14" y="13" xlink:href="#r0"/><use x="16" y="13" xlink:href="#r0"/><use x="19" y="13" xlink:href="#r0"/><use x="21" y="13" xlink:href="#r0"/><use x="22" y="13" xlink:href="#r0"/><use x="24" y="13" xlink:href="#r0"/><use x="4" y="14" xlink:href="#r0"/><use x="6" y="14" xlink:href="#r0"/><use x="8" y="14" xlink:href="#r0"/><use x="9" y="14" xlink:href="#r0"/><use x="10" y="14" xlink:href="#r0"/><use x="14" y="14" xlink:href="#r0"/><use x="16" y="14" xlink:href="#r0"/><use x="17" y="14" xlink:href="#r0"/><use x="18" y="14" xlink:href="#r0"/><use x="19" y="14" xlink:href="#r0"/><use x="20" y="14" xlink:href="#r0"/><use x="23" y="14" xlink:href="#r0"/><use x="24" y="14" xlink:href="#r0"/><use x="4" y="15" xlink:href="#r0"/><use x="6" y="15" xlink:href="#r0"/><use x="7" y="15" xlink:href="#r0"/><use x="11" y="15" xlink:href="#r0"/><use x="12" y="15" xlink:href="#r0"/><use x="14" y="15" xlink:href="#r0"/><use x="16" y="15" xlink:href="#r0"/><use x="17" y="15" xlink:href="#r0"/><use x="21" y="15" xlink:href="#r0"/><use x="23" y="15" xlink:href="#r0"/><use x="5" y="16" xlink:href="#r0"/><use x="6" y="16" xlink:href="#r0"/><use x="8" y="16" xlink:href="#r0"/><use x="10" y="16" xlink:href="#r0"/><use x="13" y="16" xlink:href="#r0"/><use x="14" y="16" xlink:href="#r0"/><use x="15" y="16" xlink:href="#r0"/><use x="17" y="16" xlink:href="#r0"/><use x="20" y="16" xlink:href="#r0"/><use x="21" y="16" xlink:href="#r0"/><use x="23" y="16" xlink:href="#r0"/><use x="12" y="17" xlink:href="#r0"/><use x="14" y="17" xlink:href="#r0"/><use x="17" y="17" xlink:href="#r0"/><use x="19" y="17" xlink:href="#r0"/><use x="21" y="17" xlink:href="#r0"/><use x="23" y="17" xlink:href="#r0"/><use x="4" y="18" xlink:href="#r0"/><use x="5" y="18" xlink:href="#r0"/><use x="6" y="18" xlink:href="#r0"/><use x="7" y="18" xlink:href="#r0"/><use x="8" y="18" xlink:href="#r0"/><use x="9" y="18" xlink:href="#r0"/><use x="10" y="18" xlink:href="#r0"/><use x="14" y="18" xlink:href="#r0"/><use x="17" y="18" xlink:href="#r0"/><use x="18" y="18" xlink:href="#r0"/><use x="20" y="18" xlink:href="#r0"/><use x="21" y="18" xlink:href="#r0"/><use x="22" y="18" xlink:href="#r0"/><use x="4" y="19" xlink:href="#r0"/><use x="10" y="19" xlink:href="#r0"/><use x="13" y="19" xlink:href="#r0"/><use x="15" y="19" xlink:href="#r0"/><use x="16" y="19" xlink:href="#r0"/><use x="17" y="19" xlink:href="#r0"/><use x="18" y="19" xlink:href="#r0"/><use x="21" y="19" xlink:href="#r0"/><use x="22" y="19" xlink:href="#r0"/><use x="4" y="20" xlink:href="#r0"/><use x="6" y="20" xlink:href="#r0"/><use x="7" y="20" xlink:href="#r0"/><use x="8" y="20" xlink:href="#r0"/><use x="10" y="20" xlink:href="#r0"/><use x="13" y="20" xlink:href="#r0"/><use x="14" y="20" xlink:href="#r0"/><use x="15" y="20" xlink:href="#r0"/><use x="18" y="20" xlink:href="#r0"/><use x="22" y="20" xlink:href="#r0"/><use x="23" y="20" xlink:href="#r0"/><use x="24" y="20" xlink:href="#r0"/><use x="4" y="21" xlink:href="#r0"/><use x="6" y="21" xlink:href="#r0"/><use x="7" y="21" xlink:href="#r0"/><use x="8" y="21" xlink:href="#r0"/><use x="10" y="21" xlink:href="#r0"/><use x="12" y="21" xlink:href="#r0"/><use x="13" y="21" xlink:href="#r0"/><use x="17" y="21" xlink:href="#r0"/><use x="20" y="21" xlink:href="#r0"/><use x="21" y="21" xlink:href="#r0"/><use x="23" y="21" xlink:href="#r0"/><use x="4" y="22" xlink:href="#r0"/><use x="6" y="22" xlink:href="#r0"/><use x="7" y="22" xlink:href="#r0"/><use x="8" y="22" xlink:href="#r0"/><use x="10" y="22" xlink:href="#r0"/><use x="12" y="22" xlink:href="#r0"/><use x="14" y="22" xlink:href="#r0"/><use x="15" y="22" xlink:href="#r0"/><use x="17" y="22" xlink:href="#r0"/><use x="20" y="22" xlink:href="#r0"/><use x="22" y="22" xlink:href="#r0"/><use x="4" y="23" xlink:href="#r0"/><use x="10" y="23" xlink:href="#r0"/><use x="12" y="23" xlink:href="#r0"/><use x="13" y="23" xlink:href="#r0"/><use x="14" y="23" xlink:href="#r0"/><use x="15" y="23" xlink:href="#r0"/><use x="16" y="23" xlink:href="#r0"/><use x="18" y="23" xlink:href="#r0"/><use x="20" y="23" xlink:href="#r0"/><use x="21" y="23" xlink:href="#r0"/><use x="24" y="23" xlink:href="#r0"/><use x="4" y="24" xlink:href="#r0"/><use x="5" y="24" xlink:href="#r0"/><use x="6" y="24" xlink:href="#r0"/><use x="7" y="24" xlink:href="#r0"/><use x="8" y="24" xlink:href="#r0"/><use x="9" y="24" xlink:href="#r0"/><use x="10" y="24" xlink:href="#r0"/><use x="12" y="24" xlink:href="#r0"/><use x="13" y="24" xlink:href="#r0"/><use x="15" y="24" xlink:href="#r0"/><use x="16" y="24" xlink:href="#r0"/><use x="19" y="24" xlink:href="#r0"/></svg>
